<svg id="Layer_1" data-name="Layer 1" xmlns="http://www.w3.org/2000/svg" viewBox="0 0 750.19 1174.26"><defs><style>.cls-1{fill:transparent;}.cls-2{fill:#fedf81;}.cls-3{fill:#feb200;}.cls-4{fill:#fec928;}.cls-5{fill:#965081;}.cls-6{fill:#c47962;}.cls-7{fill:#550a11;}.cls-8{fill:#973138;}.cls-9{fill:#e58b90;}.cls-10{fill:#c58c7d;}.cls-11{fill:#4e342e;}.cls-12{fill:#8c6e63;}.cls-13{fill:#8d6e63;}</style></defs><title>makeupbox</title><path class="cls-1" d="M126,600.47q0-291-.09-581.92c0-3.67.69-4.65,4.54-4.64q370.45.17,740.9,0c4.28,0,4.74,1.15,4.74,5q-.15,582.17,0,1164.35c0,4-.66,4.91-4.81,4.91q-370.2-.2-740.4,0c-4.52,0-5-1.3-5-5.24Q126.06,891.68,126,600.47Z" transform="translate(-125.91 -13.88)"/><path class="cls-2" d="M842.86,286.91c0,2,.13,4,.13,6q0,432,0,864c0,8.12,1,7.09-7.24,7.09q-333.5,0-667,0c-7.53,0-6.74.84-6.74-6.59q0-432.5,0-865c0-1.83.09-3.66.13-5.49,1.45-1.41,3.31-1.42,5.14-1.51s3.67,0,5.5,0q329.72,0,659.44,0C835.8,285.4,839.6,284.45,842.86,286.91Z" transform="translate(-125.91 -13.88)"/><path class="cls-3" d="M162.16,251c.12-5.87,3.16-10.9,5-16.18,11.07-31.07,22.53-62,33.87-93s22.66-62,34-92.93c1.19-3.26,2.74-5,7-5q260.46.27,520.93.07c4.2,0,5.76,1.33,7.2,5.36,11.52,32.29,23.45,64.43,35.2,96.64q18,49.46,35.95,99c.71,1.95,2,3.82,1.45,6.09-1.4,1.47-3.26,1.53-5.09,1.62s-3.67.05-5.5.05q-329.74,0-659.49,0C169.19,252.6,165.37,253.59,162.16,251Z" transform="translate(-125.91 -13.88)"/><path class="cls-4" d="M162.16,251l468.78,0q105.95,0,211.9,0,0,18,0,35.95c-1.67,0-3.33.08-5,.08H167.13c-1.67,0-3.33-.05-5-.08Q162.15,268.94,162.16,251Z" transform="translate(-125.91 -13.88)"/><path class="cls-5" d="M503,886H807c7,0,7,0,7,7.26q0,46,0,92c0,7.7,1,6.73-6.51,6.74q-157,0-314,0H198c-7,0-7,0-7-7.26q0-46,0-92c0-7.69-1-6.73,6.51-6.73Q350.26,886,503,886Z" transform="translate(-125.91 -13.88)"/><path class="cls-6" d="M501.55,745h304.9c6.54,0,6.55,0,6.55,6.31,0,31.49-.07,63,.09,94.47,0,4.11-1,5.31-5.23,5.31q-306.4-.15-612.81,0c-4.35,0-5.15-1.44-5.13-5.41q.22-47.48,0-95c0-4.52,1.09-5.83,5.74-5.82Q348.6,745.1,501.55,745Z" transform="translate(-125.91 -13.88)"/><path class="cls-7" d="M502,1027q152.7,0,305.4-.11c4.53,0,5.71,1.09,5.68,5.66-.21,31.82-.16,63.65,0,95.47,0,3.57-.43,5.09-4.7,5.09q-306.9-.19-613.81,0c-3.72,0-4.68-.88-4.66-4.64q.24-48.23,0-96.47c0-4.29,1.21-5.08,5.24-5.07Q348.58,1027.08,502,1027Z" transform="translate(-125.91 -13.88)"/><path class="cls-8" d="M501,710q-152.46,0-304.92.13c-5.15,0-6.22-1.36-6.18-6.29.24-31.66.19-63.32,0-95,0-3.92,1-5,4.94-5q306.67.15,613.34,0c4,0,4.91,1.17,4.89,5q-.22,47.74,0,95.47c0,4.55-1.13,5.73-5.71,5.72Q654.19,709.9,501,710Z" transform="translate(-125.91 -13.88)"/><path class="cls-9" d="M501.24,569q-152.49,0-305,.11c-4.93,0-6.45-1-6.41-6.25.27-31.33.21-62.66.05-94,0-4.28.7-6,5.62-6q306,.21,611.94,0c4.3,0,5.66.94,5.63,5.48q-.31,47.49,0,95c0,4.75-1.46,5.72-5.9,5.71Q654.23,568.92,501.24,569Z" transform="translate(-125.91 -13.88)"/><path class="cls-10" d="M502.76,322q152.49,0,305-.11c4.94,0,6.44,1,6.39,6.25q-.41,47.24,0,94.49c0,4.56-1.36,5.46-5.64,5.46q-306-.15-612,0c-4.31,0-5.65-1-5.62-5.48q.31-47.5,0-95c0-4.75,1.45-5.71,5.89-5.71Q349.77,322.09,502.76,322Z" transform="translate(-125.91 -13.88)"/><path class="cls-11" d="M501,78H615c9.62,0,13,3.33,13,12.87,0,18-.07,36,.07,54,0,3.23-.83,4.29-4.15,4.2q-12.74-.34-25.5,0c-3.41.09-4.64-.74-4.51-4.36.27-7.82.09-15.66,0-23.49,0-7.5-2.69-10.18-10.28-10.18q-82.5,0-165,0c-7.2,0-10.67,3.55-10.69,10.78,0,7.67-.12,15.34.07,23,.08,3.1-.59,4.4-4.05,4.3-8.66-.25-17.33-.18-26,0-2.83,0-4.12-.43-4.09-3.75.16-18.83,0-37.67.11-56.5,0-7.15,4.19-10.8,12-10.8Q443.53,78,501,78Z" transform="translate(-125.91 -13.88)"/><path class="cls-11" d="M500.5,974q-32.25,0-64.5,0c-7.54,0-9-1.48-9-9.08,0-9.17.15-18.34-.08-27.5-.09-3.59,1.15-4.66,4.58-4.44a118.92,118.92,0,0,0,12,0c2.66-.1,3.51,1,3.43,3.54-.13,4.33,0,8.67,0,13,0,3.74,1.73,5.47,5.48,5.46q47.75,0,95.5,0c4.25,0,6.46-1.92,6.24-6.45-.2-4,.05-8-.08-12-.08-2.53.77-3.63,3.43-3.54,4.33.15,8.67.13,13,0,2.53-.08,3.57.75,3.54,3.42-.11,10.5,0,21-.08,31.5-.06,5.17-3.74,6.09-7.94,6.09Z" transform="translate(-125.91 -13.88)"/><path class="cls-11" d="M501.49,833H437.07c-7.59,0-9-1.46-9-9,0-9.32.09-18.65-.06-28,0-2.95.72-4.24,3.9-4.05a94.2,94.2,0,0,0,12,0c3.49-.24,4.25,1.3,4.09,4.39-.2,3.82.05,7.66-.07,11.48-.13,4.12,1.51,6.16,5.84,6.16q47.44-.08,94.89,0c4.48,0,6.84-1.89,6.57-6.66-.18-3.32.28-6.7-.12-10-.56-4.64,1.39-5.8,5.63-5.39a63.9,63.9,0,0,0,10.48,0c3.19-.22,3.93,1.13,3.88,4.06-.14,9.65,0,19.31-.06,29,0,6.15-1.81,8-8.06,8Q534.2,833,501.49,833Z" transform="translate(-125.91 -13.88)"/><path class="cls-11" d="M500.32,1115q-32.21,0-64.43,0c-7.23,0-8.88-1.65-8.89-8.67,0-9.16.14-18.32-.07-27.47-.08-3.58.75-5.24,4.67-4.92a83.77,83.77,0,0,0,11.48,0c3.15-.17,4.08,1.15,3.94,4.1-.18,3.82.13,7.67-.08,11.48-.26,4.71,1.7,6.55,6.45,6.51,19-.15,38-.06,56.93-.06,12.15,0,24.31,0,36.46,0,6.2,0,7.11-1.1,7.27-7.3.12-4.63-2-10.56.83-13.53,3.07-3.24,9.16-.6,13.88-1.18,4.15-.5,5.46,1.06,5.33,5.24-.3,9.15-.08,18.31-.09,27.47,0,6.5-1.73,8.3-8.25,8.31Q533,1115,500.32,1115Z" transform="translate(-125.91 -13.88)"/><path class="cls-11" d="M500.23,692q-32.21,0-64.42,0c-7.19,0-8.8-1.63-8.8-8.76,0-9.32.11-18.65-.06-28-.06-3.22.89-4.56,4.23-4.3,5,.38,11.26-1.95,14.56.86,3.45,2.94,1,9.4,1.18,14.3.27,6,.91,6.85,7.06,6.86q46.2,0,92.39,0c6.73,0,7.56-1,7.72-7.89.1-4.45-1.93-10.18.85-13,3-3.09,8.88-.47,13.43-1.11,4.77-.66,5.88,1.38,5.73,5.84-.32,9.14-.08,18.31-.1,27.46,0,5.87-2,7.71-8.33,7.72Q532.94,692,500.23,692Z" transform="translate(-125.91 -13.88)"/><path class="cls-11" d="M500.17,551q-32.22,0-64.44,0c-7.2,0-8.7-1.54-8.7-8.82,0-9.49.09-19-.06-28.47,0-2.82.82-3.84,3.67-3.69,5.13.28,11.63-1.57,15,.91s.91,9.32,1.11,14.24c.24,5.69,1.09,6.8,6.7,6.81q46.71,0,93.42,0c5.89,0,7.21-1.42,7.26-7.46,0-3.66.12-7.33,0-11-.11-2.54.7-3.62,3.38-3.51,4.32.17,8.67.22,13,0,3.06-.16,3.54,1.22,3.51,3.85-.11,9.82,0,19.65-.06,29.47,0,5.85-1.84,7.66-7.85,7.66Q533.15,551,500.17,551Z" transform="translate(-125.91 -13.88)"/><path class="cls-11" d="M501.39,410q-32.21,0-64.43,0c-7.52,0-8.93-1.46-8.93-9.1,0-9.32.11-18.65-.07-28-.06-3.1,1-4.09,4-3.93,4.15.22,8.33.17,12.48,0,2.6-.1,3.55.86,3.46,3.46-.15,4.32,0,8.66,0,13,0,3.7,1.68,5.53,5.44,5.53q47.95,0,95.9,0c4,0,6.11-2,6-6.24s0-8.33-.07-12.48c-.06-2.33.77-3.29,3.17-3.23q6.74.18,13.48,0c2.32-.06,3.26.72,3.24,3.13-.09,10.49,0,21-.07,31.46,0,4.55-2.29,6.36-7.62,6.37q-31,.06-61.93,0Z" transform="translate(-125.91 -13.88)"/><path class="cls-12" d="M501.73,88h78.95a32,32,0,0,1,4,0c3.22.41,5.31,2.25,5.24,5.55s-2.19,5.07-5.44,5.37c-1.16.11-2.33,0-3.5,0H421.08a25.52,25.52,0,0,1-4-.07c-3-.47-4.95-2.22-5-5.28-.06-3.32,2-5.16,5.2-5.59a29.68,29.68,0,0,1,4-.05Z" transform="translate(-125.91 -13.88)"/><path class="cls-13" d="M500.46,962q23.21,0,46.42,0c2,0,4.41-.38,4.87,2.27.66,3.8-2.18,3.81-4.79,3.81H494.05q-20,0-39.93,0c-2,0-4.41.39-4.87-2.27-.66-3.8,2.17-3.81,4.79-3.81Z" transform="translate(-125.91 -13.88)"/><path class="cls-13" d="M501.55,827.06q-23.21,0-46.42,0c-2,0-4.41.39-4.88-2.26-.67-3.8,2.15-3.82,4.77-3.82h51.91q20.46,0,40.93,0c2,0,4.41-.39,4.88,2.26.68,3.8-2.16,3.82-4.77,3.82Z" transform="translate(-125.91 -13.88)"/><path class="cls-13" d="M500.54,1109.06q-23.21,0-46.42,0c-2,0-4.41.38-4.87-2.27-.66-3.8,2.17-3.81,4.79-3.81h53.9q19.47,0,38.93,0c2,0,4.41-.38,4.87,2.27.66,3.8-2.18,3.81-4.79,3.81Z" transform="translate(-125.91 -13.88)"/><path class="cls-13" d="M501.06,680q22.71,0,45.42,0c2.25,0,5.22-.56,5.35,2.84.14,3.83-3.06,3.21-5.46,3.22q-45.92,0-91.83,0c-2.25,0-5.22.57-5.35-2.84-.14-3.83,3.05-3.21,5.46-3.22Q477.85,679.94,501.06,680Z" transform="translate(-125.91 -13.88)"/><path class="cls-13" d="M500.47,539q23.21,0,46.42,0c2,0,4.41-.38,4.87,2.28.66,3.8-2.19,3.8-4.8,3.8H493q-19.47,0-38.93,0c-2,0-4.41.38-4.87-2.27-.65-3.8,2.18-3.8,4.8-3.8Z" transform="translate(-125.91 -13.88)"/><path class="cls-13" d="M501.51,404.06q-23,0-45.92,0c-2.42,0-5.6.57-5.41-3.26.17-3.39,3.15-2.79,5.39-2.79q45.92,0,91.84,0c2.42,0,5.6-.56,5.41,3.27-.17,3.39-3.15,2.79-5.39,2.79Q524.47,404.09,501.51,404.06Z" transform="translate(-125.91 -13.88)"/></svg>