<svg id="Layer_1" data-name="Layer 1" xmlns="http://www.w3.org/2000/svg" viewBox="0 0 749.19 1173.19"><defs><style>.cls-1{fill:transparent;}.cls-2{fill:#fedf81;}.cls-3{fill:#feb200;}.cls-4{fill:#fec928;}.cls-5{fill:#c47962;}.cls-6{fill:#965081;}.cls-7{fill:#e58b90;}.cls-8{fill:#550a11;}.cls-9{fill:#c58c7d;}.cls-10{fill:#804f52;}.cls-11{fill:#973138;}.cls-12{fill:#4e342e;}.cls-13{fill:#4f342e;}.cls-14{fill:#8c6e63;}.cls-15{fill:#8d6e63;}</style></defs><title>makeup-box-pinks</title><path class="cls-1" d="M875,600.5q0,291,.09,582c0,3.75-.84,4.59-4.59,4.59q-370-.16-740,0c-3.75,0-4.59-.84-4.59-4.59q.15-582,0-1164c0-3.75.84-4.59,4.59-4.59q370,.15,740,0c3.75,0,4.6.84,4.59,4.59Q874.93,309.5,875,600.5Z" transform="translate(-125.91 -13.91)"/><path class="cls-2" d="M841.86,285.91c0,2.16.13,4.33.13,6.49q0,431.5,0,863c0,1.5-.1,3,0,4.5.18,2.44-1,3.29-3.27,3.11-1.16-.09-2.33,0-3.5,0H167.75c-7.54,0-6.74.83-6.74-6.59q0-432.5,0-865c0-1.83.09-3.66.13-5.49,1.45-1.41,3.31-1.42,5.14-1.51s3.67,0,5.5,0q329.72,0,659.44,0C834.79,284.4,838.6,283.45,841.86,285.91Z" transform="translate(-125.91 -13.91)"/><path class="cls-3" d="M161.16,250c.12-5.87,3.16-10.9,5-16.18,11.07-31.07,22.53-62,33.87-93s22.66-62,34-92.93c1.19-3.26,2.74-5,7-5q260.46.27,520.93.07c4.2,0,5.76,1.33,7.2,5.36,11.52,32.29,23.45,64.43,35.2,96.64q18,49.46,35.95,99c.71,1.95,2,3.82,1.45,6.09-1.4,1.47-3.26,1.53-5.09,1.62s-3.67.05-5.5.05q-329.75,0-659.49,0C168.19,251.6,164.37,252.59,161.16,250Z" transform="translate(-125.91 -13.91)"/><path class="cls-4" d="M161.16,250l467.78,0q106.45,0,212.9,0,0,18,0,35.95c-1.67,0-3.33.08-5,.08H166.13c-1.67,0-3.33-.05-5-.08Q161.15,267.94,161.16,250Z" transform="translate(-125.91 -13.91)"/><path class="cls-5" d="M500.46,850H195.55c-6.55,0-6.55,0-6.55-6.31,0-31.49.07-63-.09-94.47,0-4.1,1-5.31,5.23-5.31q306.4.15,612.8,0c4.35,0,5.16,1.43,5.14,5.41-.15,31.49-.2,63,0,94.47,0,5-1.12,6.35-6.26,6.35Q653.16,849.87,500.46,850Z" transform="translate(-125.91 -13.91)"/><path class="cls-6" d="M502,885q152,0,304,0c8.06,0,7-1.06,7,6.75q.07,46.25,0,92.49c0,7.69,1,6.73-6.52,6.73Q647.73,991,489,991q-146,0-292,0c-8.06,0-7,1.06-7-6.75Q190,938,190,891.74c0-7.68-1-6.73,6.52-6.73Q349.27,885,502,885Z" transform="translate(-125.91 -13.91)"/><path class="cls-7" d="M189.11,670.09q0-53.09,0-106.17c1.45-1.39,3.31-1.43,5.14-1.51,1.67-.08,3.33,0,5,0q301.24,0,602.48,0c3.41,0,7.05-.88,10.14,1.52V670.09c-1.61,1.51-3.65,1.51-5.64,1.51-77.39,0-154.79.14-232.18-.06-.33,0-.66,0-1,0-29.57.32-59.15.11-88.72.12-19.44,0-38.88.21-58.32-.12-3,.25-6,.14-9,.14q-109.4,0-218.79,0C195.16,671.6,191.87,672.32,189.11,670.09Z" transform="translate(-125.91 -13.91)"/><path class="cls-8" d="M500.57,1132q-153,0-305.9.09c-4.31,0-5.83-.75-5.79-5.54.25-32,.19-64,0-96,0-3.69.83-4.68,4.62-4.67q306.9.15,613.8,0c4.2,0,4.75,1.42,4.74,5.05q-.19,48,0,96c0,4.12-.93,5.19-5.13,5.19Q653.77,1131.91,500.57,1132Z" transform="translate(-125.91 -13.91)"/><path class="cls-9" d="M501.23,427q-152.49,0-305,.11c-5,0-6.43-1.07-6.38-6.26.27-31.33.2-62.66.05-94,0-4.28.71-6,5.62-6q306,.21,612,0c4.32,0,5.64,1,5.61,5.49q-.31,47.5,0,95c0,4.76-1.47,5.71-5.9,5.7Q654.22,426.92,501.23,427Z" transform="translate(-125.91 -13.91)"/><path class="cls-10" d="M811.88,563.92c-1.5,0-3,.08-4.5.08H193.61c-1.5,0-3-.05-4.5-.08,1.75-8.53,5.48-16.41,8.32-24.57,6.2-17.79,13-35.38,19.45-53.07,2.71-7.38,5.55-14.73,7.93-22.22.79-2.49,2-3.18,4.22-3.07,1.16.06,2.33,0,3.5,0q274.92,0,549.85-.07c4.71,0,6.8.63,8,6.26,5.95,27.83,12.89,55.44,19.18,83.2C810.57,554.81,812.52,559.18,811.88,563.92Z" transform="translate(-125.91 -13.91)"/><path class="cls-11" d="M572.95,670.16c1.5-.05,3-.15,4.49-.15H807.89c1.33,0,2.66.06,4,.09,0,11.83,0,23.66.15,35.49,0,2.53-.63,3.79-3.34,3.44a23.78,23.78,0,0,0-3,0q-305.2,0-610.41.13c-5.32,0-6.62-1.45-6.42-6.55.43-10.82.19-21.66.23-32.49L410.56,670c5.16,0,10.33.1,15.49.15,2.48,3.26,1.36,7.06,1.49,10.63.26,7.08,1.46,8.57,8.53,8.59q63.43.13,126.86,0c7.08,0,8.27-1.51,8.53-8.59C571.59,677.22,570.47,673.42,572.95,670.16Z" transform="translate(-125.91 -13.91)"/><path class="cls-12" d="M500.07,77h114C623.65,77,627,80.35,627,89.92c0,17.83-.11,35.67.1,53.5,0,3.78-1,4.8-4.72,4.68-8.49-.29-17-.22-25.49,0-3,.07-4-.76-4-3.9.21-7.83.05-15.66,0-23.5S590.41,110,582.64,110q-82.5,0-165,0c-7.16,0-10.63,3.58-10.65,10.82,0,7.83-.1,15.67.06,23.5.06,2.74-.65,3.8-3.59,3.74q-13.49-.26-27,0c-3,.06-3.53-1.15-3.52-3.8.09-18.83,0-37.67.08-56.5,0-7.13,4.2-10.75,12-10.76Q442.58,77,500.07,77Z" transform="translate(-125.91 -13.91)"/><path class="cls-12" d="M500.52,832q-32.46,0-64.92,0c-6.93,0-8.56-1.64-8.57-8.47,0-9.32.12-18.65-.07-28-.07-3.36.73-4.88,4.39-4.59a64.12,64.12,0,0,0,11,0c3.95-.36,4.88,1.3,4.63,4.88-.27,3.81,0,7.65-.07,11.48-.07,4,1.85,5.68,5.8,5.67q47.44-.06,94.89,0c4.47,0,6.85-1.86,6.6-6.63-.19-3.65.18-7.34-.11-11s1.21-4.62,4.59-4.4a91.37,91.37,0,0,0,11.48,0c3.16-.2,4,1.08,3.91,4-.15,9.65,0,19.31-.06,29,0,6.16-1.81,8-8,8Q533.23,832,500.52,832Z" transform="translate(-125.91 -13.91)"/><path class="cls-12" d="M499.28,973q-32.25,0-64.5,0c-7.19,0-8.76-1.61-8.76-8.8,0-9.33.12-18.67-.07-28-.07-3.32,1-4.46,4.3-4.2,5,.4,11.3-2,14.53.91s.89,9.44,1.11,14.36c.25,5.74,1,6.71,6.74,6.72q46.5,0,93,0c6.34,0,7.43-1.19,7.47-7.67,0-.17,0-.33,0-.5.41-4.42-2.09-10.85,1-12.84,4.46-2.85,11-.73,16.6-.9,2.15-.07,2.28,1.47,2.27,3.06,0,10.67.11,21.33-.06,32-.07,4.85-3.62,5.86-7.65,5.86h-66Z" transform="translate(-125.91 -13.91)"/><path class="cls-12" d="M499.41,652q-32.47,0-64.94,0c-6.9,0-8.43-1.59-8.44-8.58,0-9.49.11-19-.07-28.47-.06-3.08.86-4.12,3.95-3.94,4.15.24,8.33.17,12.48,0,2.57-.1,3.57.78,3.47,3.42-.16,4.32,0,8.66,0,13,0,3.69,1.66,5.56,5.43,5.56q48,0,95.92,0c4,0,6.13-2,6-6.22s.05-8.33-.07-12.49c-.07-2.31.7-3.31,3.13-3.24,4.49.13,9,.12,13.49,0,2.29-.06,3.27.63,3.24,3.09-.1,10.49,0,21-.08,31.47-.05,4.59-2.27,6.39-7.58,6.4Q532.38,652,499.41,652Z" transform="translate(-125.91 -13.91)"/><path class="cls-13" d="M572.95,670.16c0,4.67-.09,9.34.08,14,.16,4.48-2.33,6.29-6.28,6.8a27.63,27.63,0,0,1-3.5,0H435.75c-8.54,0-9.75-1.22-9.74-9.84,0-3.67,0-7.33,0-11h146.9Z" transform="translate(-125.91 -13.91)"/><path class="cls-12" d="M499.37,1114H436.44c-9.5,0-10.44-1-10.44-10.62,0-8.49.22-17-.09-25.47-.15-4.1,1.3-5.25,5.14-5a104.76,104.76,0,0,0,11.48,0c2.61-.09,3.55,1,3.48,3.53-.12,4.32,0,8.66,0,13-.06,3.72,1.57,5.52,5.37,5.52q47.7,0,95.39,0c4.54,0,6.68-2,6.35-6.77-.28-4,0-8-.08-12-.05-2.33.86-3.31,3.22-3.26,4.49.09,9,.13,13.48,0,2.77-.08,3.33,1.3,3.31,3.69-.07,10.32,0,20.64-.06,31,0,4.5-2.49,6.35-8.17,6.36Q532.08,1114,499.37,1114Z" transform="translate(-125.91 -13.91)"/><path class="cls-12" d="M500.61,409H436.18c-7.71,0-9.14-1.41-9.15-8.89,0-9.32.14-18.65-.07-28-.08-3.36,1.07-4.4,4.28-4.14,4.95.4,11.33-2,14.51.88s.88,9.43,1.09,14.35c.24,5.68,1.07,6.73,6.75,6.73q46.7,0,93.4,0c5.71,0,7.1-1.44,7.17-7,0-3.83.12-7.66,0-11.49-.11-2.62.87-3.54,3.46-3.46,4.49.15,9,.11,13.48,0,2.12,0,3,.74,2.94,2.91-.07,10.65.06,21.31-.07,32-.06,5.12-3.62,6.12-7.9,6.11Q533.32,408.95,500.61,409Z" transform="translate(-125.91 -13.91)"/><path class="cls-4" d="M219.37,547c4.79-14.25,9.4-28.12,14.13-41.93,1.7-5,3.39-9.95,5.2-14.88,1.21-3.29,2.57-4.25,5.92-4.25Q506,486,767.43,486c2.65,0,4.13,0,4.82,3.65,3.41,18.2,7.39,36.29,11.33,54.38.52,2.37,0,3.07-2.22,3-.83,0-1.67,0-2.5,0H219.37Z" transform="translate(-125.91 -13.91)"/><path class="cls-14" d="M500.11,98c-27.31,0-54.63,0-81.94,0-3.4,0-6-1-7-4.33-.85-2.83.75-4.89,3.13-6.12a8.72,8.72,0,0,1,3.88-.57q81.69,0,163.39-.05c4,0,7.28,1.15,7.27,5.54S585.56,98,581.56,98Q540.83,97.94,500.11,98Z" transform="translate(-125.91 -13.91)"/><path class="cls-15" d="M500,826.06q-22.71,0-45.42,0c-2.25,0-5.23.59-5.37-2.81-.16-3.83,3-3.24,5.43-3.24q45.92,0,91.83,0c2.25,0,5.22-.58,5.37,2.81.17,3.83-3,3.24-5.43,3.24Q523.18,826.09,500,826.06Z" transform="translate(-125.91 -13.91)"/><path class="cls-15" d="M500,961q22.71,0,45.42,0c2.25,0,5.22-.59,5.38,2.8.18,3.83-3,3.25-5.42,3.25q-45.92,0-91.83,0c-2.24,0-5.23.59-5.38-2.8-.18-3.83,3-3.25,5.42-3.25Q476.81,960.94,500,961Z" transform="translate(-125.91 -13.91)"/><path class="cls-15" d="M499,646.06q-22.71,0-45.42,0c-2.24,0-5.23.6-5.39-2.79-.19-3.83,3-3.27,5.41-3.27q45.92,0,91.83,0c2.24,0,5.22-.6,5.39,2.79.19,3.83-3,3.26-5.41,3.27Q522.2,646.09,499,646.06Z" transform="translate(-125.91 -13.91)"/><path class="cls-15" d="M499.53,685.06q-23.21,0-46.42,0c-2,0-4.41.38-4.86-2.28-.65-3.8,2.19-3.8,4.8-3.8H509q18.47,0,36.93,0c2,0,4.41-.38,4.86,2.28.65,3.81-2.19,3.8-4.8,3.8Z" transform="translate(-125.91 -13.91)"/><path class="cls-15" d="M500,1102q22.71,0,45.42,0c2.25,0,5.22-.59,5.39,2.8.18,3.83-3,3.26-5.42,3.26q-45.92,0-91.84,0c-2.24,0-5.23.6-5.39-2.8-.18-3.83,3-3.25,5.42-3.26Q476.81,1101.94,500,1102Z" transform="translate(-125.91 -13.91)"/><path class="cls-15" d="M500.53,403.06q-23.21,0-46.42,0c-2,0-4.41.38-4.86-2.28-.65-3.8,2.19-3.8,4.8-3.8H509q19,0,37.93,0c2,0,4.41-.37,4.86,2.28.65,3.81-2.19,3.8-4.8,3.8Z" transform="translate(-125.91 -13.91)"/></svg>