<svg id="Layer_1" data-name="Layer 1" xmlns="http://www.w3.org/2000/svg" viewBox="0 0 749.19 1609.19"><defs><style>.cls-1{fill:transparent;}.cls-2{fill:#fedf81;}.cls-3{fill:#feb200;}.cls-4{fill:#fec928;}.cls-5{fill:#e58b90;}.cls-6{fill:#973138;}.cls-7{fill:#c58c7d;}.cls-8{fill:#c47962;}.cls-9{fill:#965081;}.cls-10{fill:#550a11;}.cls-11{fill:#4e342e;}.cls-12{fill:#cfe0e6;}.cls-13{fill:#8d6e63;}.cls-14{fill:#edeff0;}</style></defs><title>makeup-box-mirror</title><path class="cls-1" d="M126,850q0-399.75-.09-799.5c0-3.75.84-4.59,4.59-4.59q370,.15,740,0c3.75,0,4.59.84,4.59,4.59q-.15,800,0,1600c0,3.75-.84,4.59-4.59,4.59q-370-.16-740,0c-3.75,0-4.59-.84-4.59-4.59Q126.06,1250.25,126,850Z" transform="translate(-125.91 -45.91)"/><path class="cls-2" d="M841.86,753.91c0,2,.13,4,.13,6q0,432,0,864c0,8.11,1,7.09-7.24,7.09q-333.25,0-666.49,0c-8.23,0-7.24,1-7.24-7.09q0-432,0-864c0-2,.08-4,.13-6,1.45-1.41,3.31-1.43,5.14-1.51s3.67,0,5.5,0q329.72,0,659.44,0C834.8,752.4,838.6,751.44,841.86,753.91Z" transform="translate(-125.91 -45.91)"/><path class="cls-2" d="M236,512q0-200.2,0-400.4c0-7.43-.79-6.58,6.75-6.58q259.43,0,518.86,0c6.37,0,6.47,0,6.36,6.48-2.17,121.75-.52,243.5-.82,365.25,0,12.09,1,24.21.73,36.33a8.88,8.88,0,0,1-4.38.57c-22-.14-44,0-66.06,0-2.47,0-5,.24-7.29-1-1.91-3.1-4.64-4.12-8.31-4.08q-21.86.24-43.72,0c-3.67,0-6.4,1-8.31,4.1-2.31,1.27-4.85,1.05-7.33,1.05q-120.91,0-241.81,0c-2.48,0-5,.22-7.35-1-2.12-3.59-5.39-4.22-9.31-4.17q-21.4.25-42.81,0c-3.64,0-6.45.86-8.33,4.07-2,1.14-4.17,1.06-6.33,1.06q-32,.06-64,0C240.28,513.6,237.85,513.88,236,512Z" transform="translate(-125.91 -45.91)"/><path class="cls-3" d="M690.17,512q36,0,72,0c1.94,0,4-.47,5.7,1.05q26.67,73.49,53.35,147,10,27.54,20,55.07a17.57,17.57,0,0,1,.54,2.86c-1.4,1.47-3.26,1.53-5.09,1.62s-3.67.05-5.5.05q-329.74,0-659.48,0c-3.56,0-7.39,1-10.59-1.64,2.06-9.58,6.23-18.44,9.53-27.59,13.62-37.8,27.48-75.51,41.3-113.23q11.94-32.6,24-65.16h76.85c.26.21.59.4.71.68,2.89,6.78,2.88,6.78,10.54,6.78,13.28,0,26.55-.13,39.83.07,4.53.07,7.91-.53,8.12-6a2.27,2.27,0,0,1,1.14-1.57H629.83c.26.21.59.4.71.68,2.89,6.78,2.88,6.78,10.54,6.78,13.28,0,26.55-.13,39.83.07,4.53.07,7.91-.53,8.12-6A2.27,2.27,0,0,1,690.17,512Z" transform="translate(-125.91 -45.91)"/><path class="cls-4" d="M161.17,718,596,718q122.94,0,245.88,0,0,18,0,36c-1.67,0-3.33.08-5,.08H166.13c-1.67,0-3.33-.05-5-.08Q161.15,735.94,161.17,718Z" transform="translate(-125.91 -45.91)"/><path class="cls-5" d="M500.25,1036q-152.48,0-305,.11c-4.92,0-6.46-1-6.42-6.24q.41-47.24,0-94.49c0-4.55,1.36-5.47,5.64-5.47q306,.15,611.94,0c4.29,0,5.67.93,5.64,5.47q-.31,47.49,0,95c0,4.74-1.45,5.73-5.9,5.72Q653.23,1035.91,500.25,1036Z" transform="translate(-125.91 -45.91)"/><path class="cls-6" d="M500.57,1177q-153,0-305.92.1c-4.47,0-5.8-1-5.77-5.66.22-31.82.17-63.65,0-95.47,0-3.74.71-5.06,4.83-5.06q306.67.17,613.34,0c3.84,0,5,.87,5,4.89-.18,32-.22,64,0,96,0,4.72-1.54,5.3-5.64,5.29Q653.53,1176.92,500.57,1177Z" transform="translate(-125.91 -45.91)"/><path class="cls-7" d="M501.26,895q-152.49,0-305,.11c-4.9,0-6.47-1-6.42-6.22q.42-47.24,0-94.49c0-4.52,1.3-5.49,5.61-5.48q306,.16,612,0c4.27,0,5.67.89,5.64,5.45q-.32,47.5,0,95c0,4.7-1.39,5.74-5.87,5.73Q654.25,894.91,501.26,895Z" transform="translate(-125.91 -45.91)"/><path class="cls-8" d="M500.52,1212q152.45,0,304.9,0c7.41,0,6.56-.76,6.57,6.77,0,31.32-.06,62.65.1,94,0,4.07-1,5.34-5.21,5.34q-306.4-.16-612.8,0c-4.31,0-5.18-1.37-5.16-5.38.15-31.49.2-63,0-94.47,0-4.94,1-6.38,6.23-6.37Q347.82,1212.13,500.52,1212Z" transform="translate(-125.91 -45.91)"/><path class="cls-9" d="M502,1353q152.24,0,304.48,0c7.36,0,6.5-.88,6.5,6.25q0,46.5,0,93c0,7.69,1,6.73-6.51,6.73q-155.74,0-311.48,0-149.24,0-298.48,0c-7.36,0-6.5.88-6.5-6.25q0-46.5,0-93c0-7.68-1-6.73,6.51-6.73Q349.27,1353,502,1353Z" transform="translate(-125.91 -45.91)"/><path class="cls-10" d="M500.52,1600q-153,0-305.9.1c-4.4,0-5.78-.9-5.74-5.59q.35-48,0-96c0-3.77,1-4.63,4.67-4.63q306.9.14,613.8,0c4.28,0,4.7,1.55,4.69,5.1-.11,32-.15,64,0,96,0,4.19-1,5.14-5.18,5.14Q653.73,1599.91,500.52,1600Z" transform="translate(-125.91 -45.91)"/><path class="cls-3" d="M501.24,484q-117.47,0-234.95.1c-4.79,0-6.44-.82-6.43-6.15q.27-169.46,0-338.92c0-4.66.92-6.15,5.91-6.15q235.7.22,471.4,0c5,0,5.9,1.54,5.89,6.17q-.19,169.46,0,338.92c0,5.36-1.68,6.14-6.45,6.13Q619,483.89,501.24,484Z" transform="translate(-125.91 -45.91)"/><path class="cls-11" d="M690.17,512c-.47,9-.47,9-9.76,9-14.76,0-29.53-.23-44.29.13-4.95.12-7.09-1.05-6.15-6.16a13,13,0,0,0-.13-3c-.36-3.87.95-5.21,5.24-5.13q24.92.5,49.86,0C689.22,506.78,690.52,508.12,690.17,512Z" transform="translate(-125.91 -45.91)"/><path class="cls-11" d="M373.17,512c-.47,9-.47,9-9.76,9-14.76,0-29.53-.23-44.29.13-4.95.12-7.09-1.05-6.15-6.16a13,13,0,0,0-.13-3c-.36-3.87.95-5.21,5.24-5.13q24.92.5,49.86,0C372.22,506.78,373.52,508.12,373.17,512Z" transform="translate(-125.91 -45.91)"/><path class="cls-4" d="M787.08,687.94c-2.33,0-4.66.06-7,.06H224.92c-2.33,0-4.66,0-7-.06-1.2-1.81-.25-3.54.26-5.25,12.94-44,26.13-88,39.08-132,.88-3,1.29-6.23,3.66-8.6q52.74,0,105.49-.06l375.46-.06c2.29,1.32,2.57,3.76,3.23,5.95,10.6,34.82,21.56,69.53,32.25,104.33,3.17,10.33,6.43,20.63,9.62,31C787.44,684.72,788.2,686.32,787.08,687.94Z" transform="translate(-125.91 -45.91)"/><path class="cls-2" d="M260.92,542.06c-2.72,9.72-5.31,19.47-8.18,29.15q-17.33,58.39-34.81,116.73H200.36L259.25,516.1l.75.1c0,6.89-.05,13.78,0,20.67C260.06,538.61,259.31,540.56,260.92,542.06Z" transform="translate(-125.91 -45.91)"/><path class="cls-2" d="M787.08,687.94l-45.21-146q0-14,0-27.93l1.07-.27,59.72,174.19Z" transform="translate(-125.91 -45.91)"/><path class="cls-11" d="M499.64,1018q-32.47,0-64.94,0c-7.18,0-8.67-1.54-8.67-8.85,0-9.49.09-19-.06-28.47,0-2.86.89-3.81,3.71-3.66,5.13.28,11.63-1.56,15,.93s.89,9.32,1.1,14.25c.23,5.67,1.1,6.77,6.73,6.78q46.71,0,93.42,0c5.86,0,7.18-1.44,7.23-7.49,0-3.83.07-7.66,0-11.49-.05-2.12.73-3,2.9-3q7,.14,14,0c2.09,0,3,.63,3,2.85-.08,10.66,0,21.31-.07,32-.06,5.09-3.51,6.18-7.85,6.17Q532.37,1017.93,499.64,1018Z" transform="translate(-125.91 -45.91)"/><path class="cls-11" d="M499.12,1159H436.69c-9.87,0-10.68-.84-10.69-10.87,0-8.49.11-17-.06-25.47-.06-3.25.59-5,4.34-4.69,4.94.45,11.27-2,14.51.93s.91,9.43,1.12,14.35c.25,5.8,1,6.73,6.67,6.74q46.44,0,92.89,0c6.48,0,7.54-1.1,7.56-7.51,0-3.83.05-7.66,0-11.49,0-2.1.84-3,3-3,4.66.06,9.32.09,14,0,2.52-.05,3,1.25,3,3.43-.05,10.49,0,21-.05,31.46-.05,5.19-3.76,6.1-7.92,6.1Q532.08,1159,499.12,1159Z" transform="translate(-125.91 -45.91)"/><path class="cls-11" d="M500.51,877q-32.46,0-64.93,0c-7,0-8.54-1.59-8.55-8.48,0-9.49.09-19-.06-28.47,0-2.93.67-4.25,3.87-4.05a90.94,90.94,0,0,0,12,0c3.49-.25,4.26,1.27,4.09,4.37-.21,3.82.05,7.66-.06,11.48-.12,4.11,1.52,6.18,5.84,6.17q47.45-.07,94.89,0c4.49,0,6.83-1.9,6.61-6.65-.17-3.65.12-7.33-.09-11-.18-3.09.57-4.63,4.07-4.38a91,91,0,0,0,12,0c3.19-.2,3.92,1.1,3.88,4-.15,9.65,0,19.31-.06,29,0,6.23-1.74,8-8,8Q533.22,877,500.51,877Z" transform="translate(-125.91 -45.91)"/><path class="cls-11" d="M500.39,1300q-32.21,0-64.42,0c-7.51,0-8.94-1.48-8.94-9.1,0-9.32.11-18.65-.06-28-.06-3.1,1-4.1,4-3.94,4.15.21,8.32.16,12.48,0,2.6-.09,3.55.88,3.47,3.48-.14,4.32,0,8.66,0,13,0,3.7,1.66,5.53,5.43,5.53q47.94,0,95.89,0c4,0,6.12-2,6-6.23s0-8.32-.07-12.48c-.06-2.33.79-3.3,3.18-3.24q6.74.17,13.48,0c2.31-.06,3.27.74,3.25,3.15-.08,10.65.07,21.31-.09,32-.07,4.82-3.54,5.88-7.61,5.88H500.39Z" transform="translate(-125.91 -45.91)"/><path class="cls-11" d="M499.5,1441q-32.25,0-64.5,0c-7.54,0-9-1.48-9-9.08,0-9.17.15-18.34-.08-27.5-.09-3.59,1.15-4.67,4.58-4.45a119.08,119.08,0,0,0,12,0c2.66-.1,3.51,1,3.43,3.54-.13,4.33,0,8.67,0,13,0,3.74,1.73,5.47,5.48,5.46q47.75,0,95.5,0c4.25,0,6.47-1.92,6.24-6.45-.2-4,.05-8-.08-12-.08-2.53.77-3.64,3.43-3.55,4.33.15,8.67.13,13,0,2.53-.08,3.57.75,3.54,3.42-.11,10.5,0,21-.08,31.5-.06,5.17-3.74,6.09-7.94,6.09Z" transform="translate(-125.91 -45.91)"/><path class="cls-11" d="M499.17,1582H435.24c-7.84,0-9.24-1.43-9.24-9.33,0-9.16.12-18.31-.06-27.47-.07-3.3,1.06-4.49,4.31-4.23,5,.39,11.26-2,14.53.9s.93,9.42,1.15,14.33c.26,5.86.93,6.78,6.61,6.79q46.45,0,92.89,0c6.54,0,7.57-1.06,7.59-7.46,0-3.66.09-7.33,0-11-.08-2.51.78-3.66,3.44-3.57,4.32.14,8.66.11,13,0,2.46-.06,3.64.69,3.62,3.39-.1,10.49,0,21-.07,31.46,0,4.26-2.52,6.14-7.87,6.15q-29.22.06-58.43,0Z" transform="translate(-125.91 -45.91)"/><path class="cls-12" d="M500.71,460q-100.48,0-201,.13c-5,0-5.86-1.43-5.85-6.07q.21-142.73,0-285.45c0-4.52,1.09-5.72,5.68-5.71q201,.2,401.93,0c4.77,0,5.59,1.46,5.58,5.81q-.18,142.73,0,285.45c0,4.79-1.09,6-5.94,6Q600.94,459.85,500.71,460Z" transform="translate(-125.91 -45.91)"/><path class="cls-13" d="M499.52,1012.06q-23,0-45.92,0c-2.41,0-5.6.58-5.42-3.25.16-3.39,3.13-2.8,5.38-2.81q45.92,0,91.84,0c2.41,0,5.6-.58,5.42,3.25-.15,3.4-3.14,2.8-5.38,2.8Q522.48,1012.09,499.52,1012.06Z" transform="translate(-125.91 -45.91)"/><path class="cls-13" d="M500,1147q22.71,0,45.42,0c2.25,0,5.22-.59,5.38,2.8.18,3.83-3,3.25-5.42,3.26q-45.92,0-91.84,0c-2.24,0-5.23.59-5.38-2.8-.18-3.83,3-3.25,5.42-3.26Q476.81,1146.94,500,1147Z" transform="translate(-125.91 -45.91)"/><path class="cls-13" d="M500.5,871.06q-23,0-45.92,0c-2.42,0-5.6.56-5.4-3.27.17-3.39,3.16-2.78,5.4-2.79q45.92,0,91.84,0c2.42,0,5.6-.55,5.4,3.27-.17,3.39-3.16,2.78-5.4,2.78Q523.46,871.09,500.5,871.06Z" transform="translate(-125.91 -45.91)"/><path class="cls-13" d="M500.47,1288q23.21,0,46.42,0c2,0,4.41-.37,4.86,2.28.66,3.81-2.19,3.8-4.8,3.8H493q-19.47,0-38.93,0c-2,0-4.41.38-4.86-2.28-.65-3.8,2.19-3.8,4.8-3.8Z" transform="translate(-125.91 -45.91)"/><path class="cls-13" d="M499,1435.06q-22.71,0-45.42,0c-2.24,0-5.23.6-5.4-2.79-.19-3.83,3-3.27,5.41-3.27q45.92,0,91.83,0c2.24,0,5.22-.6,5.4,2.79.19,3.83-3,3.26-5.41,3.27Q522.2,1435.09,499,1435.06Z" transform="translate(-125.91 -45.91)"/><path class="cls-13" d="M500,1570q22.71,0,45.42,0c2.24,0,5.22-.6,5.4,2.79.19,3.83-3,3.27-5.41,3.27q-45.92,0-91.84,0c-2.24,0-5.23.6-5.4-2.79-.19-3.83,3-3.27,5.41-3.27Q476.8,1569.94,500,1570Z" transform="translate(-125.91 -45.91)"/><path class="cls-14" d="M620.28,195.43c2.67.36,3.44,1.78,4.42,2.81q18.54,19.44,37,38.94a64.14,64.14,0,0,0,6.37,6.31c3.51,2.78,3.65,4.89.1,8-4.92,4.28-4.77,4.6-9.31-.12-14.6-15.19-29.11-30.46-43.73-45.63-1.61-1.67-1.89-2.69-.08-4.4A73.69,73.69,0,0,0,620.28,195.43Z" transform="translate(-125.91 -45.91)"/><path class="cls-14" d="M643.18,257.11c-2,1.72-3.8,3.48-5.82,4.9s-2.63-.84-3.5-1.75C623.33,249.19,613,237.92,602.36,227c-3.3-3.37-.17-4.33,1.27-6.17,1.69-2.14,3.13-3,5.43-.36q15.26,17.41,31.67,33.77C641.41,254.93,642,255.71,643.18,257.11Z" transform="translate(-125.91 -45.91)"/></svg>