<svg id="Layer_1" data-name="Layer 1" xmlns="http://www.w3.org/2000/svg" viewBox="0 0 749.19 1173.19"><defs><style>.cls-1{fill:transparent;}.cls-2{fill:#fedf81;}.cls-3{fill:#feb200;}.cls-4{fill:#fec928;}.cls-5{fill:#c58c7d;}.cls-6{fill:#550a11;}.cls-7{fill:#965081;}.cls-8{fill:#c47962;}.cls-9{fill:#973138;}.cls-10{fill:#855f54;}.cls-11{fill:#e58b90;}.cls-12{fill:#4e342e;}.cls-13{fill:#d78387;}.cls-14{fill:#8c6e63;}.cls-15{fill:#8d6e63;}</style></defs><title>makeup-box-nude</title><path class="cls-1" d="M875,600.5q0,291,.09,582c0,3.75-.84,4.59-4.59,4.59q-370-.16-740,0c-3.75,0-4.59-.84-4.59-4.59q.15-582,0-1164c0-3.75.84-4.59,4.59-4.59q370,.15,740,0c3.75,0,4.6.84,4.59,4.59Q874.93,309.5,875,600.5Z" transform="translate(-125.91 -13.91)"/><path class="cls-2" d="M841.86,285.91c0,2,.13,4,.13,6q0,432,0,864c0,8.11,1,7.09-7.24,7.09q-333.5,0-667,0c-7.54,0-6.74.84-6.74-6.59q0-432.49,0-865c0-1.83.09-3.66.13-5.49,1.45-1.41,3.31-1.42,5.14-1.51s3.67,0,5.5,0q329.72,0,659.44,0C834.79,284.4,838.6,283.45,841.86,285.91Z" transform="translate(-125.91 -13.91)"/><path class="cls-3" d="M161.16,250c.12-5.87,3.16-10.9,5-16.18,11.07-31.07,22.53-62,33.87-93s22.66-62,34-92.93c1.19-3.26,2.74-5,7-5q260.46.27,520.93.07c4.2,0,5.76,1.33,7.2,5.36,11.52,32.29,23.45,64.43,35.2,96.64q18,49.46,35.95,99c.71,1.95,2,3.82,1.45,6.09-1.4,1.47-3.26,1.53-5.09,1.62s-3.67.05-5.5.05q-329.75,0-659.49,0C168.19,251.6,164.37,252.59,161.16,250Z" transform="translate(-125.91 -13.91)"/><path class="cls-4" d="M161.16,250l467.78,0q106.45,0,212.9,0,0,18,0,35.95c-1.67,0-3.33.08-5,.08H166.13c-1.67,0-3.33-.05-5-.08Q161.15,267.94,161.16,250Z" transform="translate(-125.91 -13.91)"/><path class="cls-5" d="M189.11,530q0-53,0-106.07c1.45-1.4,3.31-1.43,5.14-1.51,1.67-.08,3.33,0,5,0q301.23,0,602.46,0c3.41,0,7-.88,10.14,1.52q0,53,0,106.07c-1.73,1.68-4,1.62-6.1,1.62q-115.64,0-231.28,0c-.33,0-.66-.08-1-.11-8.22.18-16.45-.09-24.68.32a34,34,0,0,0-6.46-.39H456.61a27.22,27.22,0,0,0-6.44.51c-8.19-.57-16.41-.26-24.61-.44a27.94,27.94,0,0,1-4.49.16q-111.43,0-222.86,0C195.12,531.6,191.82,532.31,189.11,530Z" transform="translate(-125.91 -13.91)"/><path class="cls-6" d="M501.08,1026q152.7,0,305.4-.11c4.63,0,5.65,1.25,5.62,5.71q-.3,47.48,0,95c0,4.11-.6,5.56-5.27,5.56q-306.4-.22-612.8,0c-4.22,0-5.14-1.1-5.12-5.2q.27-48,0-96c0-4.38,1.35-5,5.3-5Q347.63,1026.08,501.08,1026Z" transform="translate(-125.91 -13.91)"/><path class="cls-7" d="M501,991q-152,0-304,0c-8.06,0-7,1.06-7-6.75Q190,938,190,891.74c0-7.69-1-6.73,6.52-6.73q159.49,0,319,0,145.24,0,290.48,0c8.06,0,7-1.06,7,6.75q.07,46.25,0,92.49c0,7.69,1,6.73-6.52,6.73Q653.73,991,501,991Z" transform="translate(-125.91 -13.91)"/><path class="cls-8" d="M500.5,850q-152.7,0-305.4.13c-5.22,0-6.25-1.49-6.22-6.39q.34-47.23,0-94.47c0-4,.89-5.36,5.18-5.36q306.4.16,612.8,0c4.27,0,5.21,1.31,5.19,5.35q-.24,47.73,0,95.47c0,4.69-1.59,5.36-5.71,5.35Q653.46,849.93,500.5,850Z" transform="translate(-125.91 -13.91)"/><path class="cls-9" d="M500.53,709q-152.71,0-305.42.12c-5,0-6.28-1.19-6.24-6.23.26-31.66.19-63.32,0-95,0-3.82.84-5,4.88-5q306.67.16,613.34,0c3.93,0,5,1,4.95,4.95q-.24,47.74,0,95.47c0,4.45-1,5.78-5.65,5.78Q653.49,708.89,500.53,709Z" transform="translate(-125.91 -13.91)"/><path class="cls-10" d="M811.87,423.92c-1.5,0-3,.08-4.5.08H193.62c-1.5,0-3-.05-4.5-.08,1.73-8.56,5.49-16.44,8.33-24.62,6.2-17.83,12.94-35.47,19.44-53.19,2.71-7.4,5.5-14.77,8-22.26.73-2.22,1.81-2.95,3.9-2.85,1.16.05,2.33,0,3.5,0q275.21,0,550.42-.08c4.64,0,6.52.77,7.66,6.11,5.68,26.59,12.33,53,18.29,79.51C809.92,412.26,811.91,417.92,811.87,423.92Z" transform="translate(-125.91 -13.91)"/><path class="cls-11" d="M572.88,530l239-.05c0,11.33,0,22.66.16,34,0,2.95-.77,4.44-3.92,4.05a24.62,24.62,0,0,0-3,0H195.87c-7.72,0-6.84.79-6.86-7,0-10.33.06-20.66.09-31l237,.05c1.86,2.3,1.4,5.06,1.44,7.68.13,9.92.86,10.68,11,10.7,11.16,0,22.33,0,33.49,0h86.48c2,0,4,.07,6-.08,5.28-.41,6.58-1.85,6.94-7.12C571.69,537.47,570.47,533.51,572.88,530Z" transform="translate(-125.91 -13.91)"/><path class="cls-12" d="M500.5,77H614c9.63,0,13,3.33,13,12.84,0,18-.07,36,.07,54,0,3.18-.74,4.33-4.12,4.24-8.66-.23-17.34-.25-26,0-3.52.11-4.08-1.29-4-4.34.17-8,.08-16,0-24-.06-6.89-2.85-9.7-9.75-9.7q-82.75-.06-165.49,0c-7.21,0-10.7,3.54-10.72,10.74,0,7.67-.12,15.33.07,23,.07,3.05-.5,4.44-4,4.34-8.66-.26-17.33-.24-26,0-3.38.09-4.14-1.06-4.11-4.24.14-18.33,0-36.67.08-55C373,80.7,376.77,77,385,77Q442.75,77,500.5,77Z" transform="translate(-125.91 -13.91)"/><path class="cls-12" d="M499.36,512H435.93c-8.72,0-9.9-1.15-9.91-9.63,0-9,.16-18-.08-27-.1-3.59,1.1-4.65,4.54-4.41a111.91,111.91,0,0,0,12,0c2.64-.11,3.52.92,3.43,3.49-.14,4.32,0,8.66,0,13,0,3.71,1.72,5.5,5.47,5.5q47.95,0,95.89,0c4,0,6.09-2.05,6-6.26s.05-8.33-.07-12.48c-.07-2.36.86-3.06,3.19-3.23C573,469.78,573,469.73,573,486.14q0,8.49,0,17c0,7.3-1.5,8.84-8.69,8.85Q531.82,512,499.36,512Z" transform="translate(-125.91 -13.91)"/><path class="cls-12" d="M572.88,530c0,4.16.11,8.32.08,12.48,0,5.54-1.91,7.43-7.55,7.44q-30.46.07-60.91,0-34.95,0-69.9,0c-7,0-8.55-1.59-8.56-8.45,0-3.83.05-7.65.08-11.48,8,.28,16-.84,23.95.79,1.62-.56,3.3-.29,5-.3q44.46,0,88.92,0a17.44,17.44,0,0,1,5,.25C556.86,529.15,564.9,530.36,572.88,530Z" transform="translate(-125.91 -13.91)"/><path class="cls-13" d="M548.91,530.78c-21.3.08-42.6.19-63.9.22-11.65,0-23.3-.11-34.95-.17,1.24-1.23,2.81-.81,4.26-.81q45.15,0,90.3,0C546.08,530,547.65,529.6,548.91,530.78Z" transform="translate(-125.91 -13.91)"/><path class="cls-12" d="M499.41,1114q-32.21,0-64.43,0c-7.43,0-9-1.59-9-9.08,0-9.16.14-18.32-.07-27.47-.08-3.54,1.12-4.71,4.58-4.5,4,.25,8,.15,12,0,2.57-.08,3.6.89,3.52,3.49-.13,4.32,0,8.66,0,13-.07,3.7,1.52,5.56,5.33,5.56q47.7,0,95.39,0c4.52,0,6.9-2,6.34-6.73a7.09,7.09,0,0,1,0-1.5c.43-4.41-2.12-10.78,1.06-12.81,4.47-2.86,11-.74,16.58-.9,2.1-.06,2.32,1.44,2.32,3.06,0,10.65.09,21.31,0,32-.06,4.88-3.65,5.87-7.62,5.89-12.49.05-25,0-37.46,0Z" transform="translate(-125.91 -13.91)"/><path class="cls-12" d="M499.18,973h-64c-7.66,0-9.16-1.48-9.17-8.9,0-9.17.12-18.34-.07-27.5-.07-3.33.7-4.92,4.39-4.63a65.68,65.68,0,0,0,11,0c3.94-.35,4.9,1.31,4.65,4.9-.27,3.81,0,7.66-.07,11.49-.08,4,1.85,5.67,5.81,5.66q47.5-.07,95,0c4.56,0,6.7-2.07,6.42-6.78-.23-4,0-8-.07-12-.06-2.36.89-3.4,3.24-3.19.33,0,.67,0,1,0,5,.24,11.31-2,14.54.85s.92,9.43,1.1,14.35c.21,5.83.06,11.66,0,17.5,0,6.49-1.74,8.25-8.3,8.26Q531.93,973,499.18,973Z" transform="translate(-125.91 -13.91)"/><path class="cls-12" d="M500.32,832q-32.21,0-64.42,0c-7.31,0-8.87-1.54-8.88-8.66,0-9.16.22-18.32-.1-27.46-.15-4.14,1.32-5.19,5.11-4.89a78.29,78.29,0,0,0,11,0c3.16-.2,4.06,1.08,3.92,4.05-.19,4.15,0,8.32,0,12.48,0,3.73,1.75,5.47,5.49,5.47q47.69,0,95.39,0c4.19,0,6.58-1.75,6.4-6.32-.15-4,.1-8-.08-12-.13-2.86,1-4,3.76-3.65.16,0,.33,0,.5,0,5,.23,11.31-2,14.52.83s.9,9.42,1.08,14.33c.21,5.82.06,11.65,0,17.48,0,6.57-1.68,8.3-8.23,8.3Q533,832,500.32,832Z" transform="translate(-125.91 -13.91)"/><path class="cls-12" d="M498.95,691q-32,0-63.92,0c-7.47,0-9-1.58-9-9,0-9.32.1-18.65-.05-28,0-3,.94-4.18,4-4,4,.2,8,.19,12,0,3-.14,4.22.84,4.07,4-.21,4.15,0,8.32-.06,12.48-.07,3.68,1.49,5.59,5.32,5.59q47.94,0,95.89,0c4,0,6.17-1.81,5.94-6.17-.21-4,.07-8-.09-12-.1-2.72.75-4,3.66-3.85,4.15.17,8.33.15,12.48,0,2.68-.09,3.93.66,3.89,3.62-.13,10.32,0,20.64-.08,31,0,4.57-2.43,6.42-8.09,6.43Q531.91,691,498.95,691Z" transform="translate(-125.91 -13.91)"/><path class="cls-4" d="M219.35,407c4.83-14.32,9.48-28.19,14.19-42,1.75-5.14,3.8-10.18,5.37-15.37.81-2.69,2.06-4,4.88-3.6a19.24,19.24,0,0,0,2.5,0q259.71,0,519.42-.11c4.38,0,6.21.88,7.07,5.43,3.38,17.73,7.18,35.38,10.92,53,.46,2.17-.39,2.7-2.24,2.66-.83,0-1.67,0-2.5,0l-555.91,0Z" transform="translate(-125.91 -13.91)"/><path class="cls-14" d="M500.16,98q-41,0-81.94,0c-3.61,0-6.31-1.07-7.1-4.77-.62-2.88,1.18-4.8,3.61-5.87a10.05,10.05,0,0,1,3.93-.38q81.44,0,162.89,0c4,0,7.29,1.11,7.31,5.5S585.61,98,581.6,98Q540.88,97.94,500.16,98Z" transform="translate(-125.91 -13.91)"/><path class="cls-15" d="M498.94,506.06q-22.71,0-45.42,0c-2.25,0-5.22.57-5.35-2.84-.14-3.83,3.06-3.21,5.46-3.22q45.92,0,91.83,0c2.25,0,5.22-.56,5.35,2.84.14,3.83-3.06,3.21-5.46,3.22Q522.15,506.09,498.94,506.06Z" transform="translate(-125.91 -13.91)"/><path class="cls-15" d="M500,538q22.71,0,45.42,0c2.25,0,5.22-.59,5.38,2.81.17,3.83-3,3.25-5.43,3.25q-45.92,0-91.83,0c-2.24,0-5.23.59-5.38-2.81-.17-3.83,3-3.24,5.43-3.25Q476.82,537.94,500,538Z" transform="translate(-125.91 -13.91)"/><path class="cls-15" d="M499.63,1102c15.14,0,30.28,0,45.42,0,2.34,0,5.63-.86,5.76,2.9s-3.14,3.14-5.52,3.14q-45.67,0-91.34,0c-2.33,0-5.7.86-5.75-2.9-.05-4.17,3.56-3.11,6-3.13C469.35,1101.93,484.49,1102,499.63,1102Z" transform="translate(-125.91 -13.91)"/><path class="cls-15" d="M499.48,961q23,0,45.92,0c2.42,0,5.6-.57,5.42,3.26-.16,3.4-3.14,2.8-5.38,2.8q-45.92,0-91.83,0c-2.41,0-5.6.58-5.42-3.26.16-3.39,3.14-2.8,5.38-2.8Q476.52,960.94,499.48,961Z" transform="translate(-125.91 -13.91)"/><path class="cls-15" d="M500.49,826.06q-23,0-45.92,0c-2.24,0-5.23.6-5.39-2.8-.18-3.83,3-3.26,5.42-3.26q45.92,0,91.84,0c2.24,0,5.22-.6,5.39,2.8.18,3.83-3,3.25-5.41,3.26Q523.45,826.09,500.49,826.06Z" transform="translate(-125.91 -13.91)"/><path class="cls-15" d="M500,679q22.71,0,45.42,0c2.24,0,5.22-.6,5.4,2.79.2,3.83-3,3.27-5.4,3.27q-45.92,0-91.83,0c-2.24,0-5.23.61-5.4-2.79-.19-3.83,3-3.27,5.41-3.27Q476.79,678.94,500,679Z" transform="translate(-125.91 -13.91)"/></svg>