<?xml version="1.0" encoding="utf-8"?>
<!-- Generator: Adobe Illustrator 21.0.2, SVG Export Plug-In . SVG Version: 6.00 Build 0)  -->
<svg version="1.1" id="Layer_1" xmlns="http://www.w3.org/2000/svg" xmlns:xlink="http://www.w3.org/1999/xlink" x="0px" y="0px"
	 viewBox="0 0 612 792" style="enable-background:new 0 0 612 792;" xml:space="preserve">
<style type="text/css">
	.st0{fill:#FEFEFE;}
	.st1{fill:#FEDF81;}
	.st2{fill:#FEB200;}
	.st3{fill:#FEC928;}
	.st4{fill:#965081;}
	.st5{fill:#C47962;}
	.st6{fill:#550A11;}
	.st7{fill:#973138;}
	.st8{fill:#E58B90;}
	.st9{fill:#C58C7D;}
	.st10{fill:#4E342E;}
	.st11{fill:#8C6E63;}
	.st12{fill:#8D6E63;}
</style>
<g>
	<g>
		<path class="st0" d="M681,396.5c0,194,0,388,0.1,582c0,3.7-0.8,4.6-4.6,4.6c-246.7-0.1-493.3-0.1-740,0c-3.7,0-4.6-0.8-4.6-4.6
			c0.1-388,0.1-776,0-1164c0-3.7,0.8-4.6,4.6-4.6c246.7,0.1,493.3,0.1,740,0c3.7,0,4.6,0.8,4.6,4.6C681,8.5,681,202.5,681,396.5z"/>
		<path class="st1" d="M647.9,81.9c0,2,0.1,4,0.1,6c0,288,0,576,0,864c0,8.1,1,7.1-7.2,7.1c-222.3,0-444.7,0-667,0
			c-7.5,0-6.7,0.8-6.7-6.6c0-288.3,0-576.7,0-865c0-1.8,0.1-3.7,0.1-5.5c1.4-1.4,3.3-1.4,5.1-1.5c1.8-0.1,3.7,0,5.5,0
			c219.8,0,439.6,0,659.4,0C640.8,80.4,644.6,79.4,647.9,81.9z"/>
		<path class="st2" d="M-32.8,46c0.1-5.9,3.2-10.9,5-16.2c11.1-31.1,22.5-62,33.9-93c11.3-31,22.7-62,34-92.9c1.2-3.3,2.7-5,7-5
			c173.6,0.2,347.3,0.2,520.9,0.1c4.2,0,5.8,1.3,7.2,5.4c11.5,32.3,23.5,64.4,35.2,96.6c12,33,24,66,35.9,99c0.7,1.9,2,3.8,1.4,6.1
			c-1.4,1.5-3.3,1.5-5.1,1.6c-1.8,0.1-3.7,0.1-5.5,0.1c-219.8,0-439.7,0-659.5,0C-25.8,47.6-29.6,48.6-32.8,46z"/>
		<path class="st3" d="M-32.8,46c155.6,0,311.2,0,466.8,0c71.3,0,142.6,0,213.9,0c0,12,0,24,0,35.9c-1.7,0-3.3,0.1-5,0.1
			c-223.6,0-447.2,0-670.7,0c-1.7,0-3.3-0.1-5-0.1C-32.9,69.9-32.8,57.9-32.8,46z"/>
		<path class="st4" d="M307,787c-101.5,0-203,0-304.5,0c-7.4,0-6.5,0.9-6.5-6.2c0-31,0-62,0-93c0-7.7-1-6.7,6.5-6.7
			c104.2,0,208.3,0,312.5,0c99.2,0,198.3,0,297.5,0c7.4,0,6.5-0.9,6.5,6.2c0,31,0,62,0,93c0,7.7,1,6.7-6.5,6.7
			C510.6,787,408.8,787,307,787z"/>
		<path class="st5" d="M306.4,646c-101.6,0-203.3,0-304.9,0c-6.5,0-6.5,0-6.5-6.3c0-31.5,0.1-63-0.1-94.5c0-4.1,1.1-5.3,5.3-5.3
			c204.3,0.1,408.5,0.1,612.8,0c4.4,0,5.1,1.5,5.1,5.4c-0.1,31.7-0.2,63.3,0,95c0,4.5-1.1,5.8-5.8,5.8
			C510.4,646,408.4,646,306.4,646z"/>
		<path class="st6" d="M306,928c-101.8,0-203.6,0-305.4,0.1c-4.6,0-5.7-1.1-5.7-5.7c0.2-31.8,0.2-63.6,0-95.5c0-4.3,1.3-5.1,5.3-5.1
			c204.3,0.1,408.5,0.1,612.8,0c4.2,0,5.2,1,5.2,5.2c-0.2,32-0.2,64,0,96c0,4.3-1.3,5.1-5.3,5.1C510.6,928,408.3,928,306,928z"/>
		<path class="st7" d="M306,505c-101.6,0-203.3,0-304.9,0.1c-5.2,0-6.2-1.4-6.2-6.3c0.2-31.7,0.2-63.3,0-95c0-4,1.1-4.9,5-4.9
			c204.4,0.1,408.9,0.1,613.3,0c4.1,0,4.9,1.2,4.9,5c-0.1,32-0.2,64,0,96c0,4.2-1.1,5.2-5.2,5.2C510.6,505,408.3,505,306,505z"/>
		<path class="st8" d="M306.4,258c101.7,0,203.3,0,305,0c6.7,0,6.7,0,6.7,6.8c0,31.2-0.1,62.3,0.1,93.5c0,4.5-1.1,5.9-5.8,5.9
			c-204-0.1-408-0.1-611.9,0c-4.5,0-5.5-1.3-5.5-5.6c0.2-31.5,0.2-63,0-94.5c0-4.8,1.1-6.1,6-6.1C102.7,258,204.5,258,306.4,258z"/>
		<path class="st9" d="M307.2,223c-101.7,0-203.3,0-305,0.1c-4.9,0-6.4-1.1-6.4-6.3c0.3-31.3,0.2-62.7,0.1-94c0-4.3,0.7-6,5.6-6
			c204,0.1,408,0.1,612,0c4.3,0,5.6,1,5.6,5.5c-0.2,31.7-0.2,63.3,0,95c0,4.8-1.5,5.7-5.9,5.7C511.2,223,409.2,223,307.2,223z"/>
		<path class="st10" d="M306.2-127c37.8,0,75.7,0,113.5,0c10,0,13.3,3.2,13.3,13c0,17.8-0.1,35.7,0.1,53.5c0,3.4-0.7,4.7-4.3,4.5
			c-8.5-0.3-17-0.3-25.5,0c-3.7,0.1-4.4-1.2-4.3-4.6c0.2-7.8,0.1-15.7,0-23.5c0-7.2-2.8-10-10-10c-55.2,0-110.3,0-165.5,0
			c-6.9,0-10.5,3.6-10.5,10.5c0,7.8-0.1,15.7,0.1,23.5c0.1,2.8-0.4,4.2-3.7,4.1c-9-0.2-18-0.2-27,0c-2.7,0-3.4-0.8-3.4-3.4
			c0.1-19,0-38,0.1-57c0-6.9,4.2-10.6,11.7-10.6c37.3,0,74.7,0,112,0C303.9-127,305-127,306.2-127z"/>
		<path class="st10" d="M305.2,769c-21.5,0-43,0-64.5,0c-7.1,0-8.7-1.6-8.7-8.9c0-9.2,0.2-18.3-0.1-27.5c-0.1-3.9,1.2-5,4.9-4.7
			c3.8,0.3,7.7,0.2,11.5,0c2.9-0.1,3.8,1.1,3.7,3.8c-0.2,4.3,0,8.7,0,13c0,3.5,1.7,5.2,5.2,5.2c32,0,64,0,96,0c4,0,6.1-1.9,6-6.2
			c-0.2-4.2,0-8.3-0.1-12.5c-0.1-2.3,0.8-3.3,3.2-3.3c4.5,0.1,9,0.1,13.5,0c2.3-0.1,3.3,0.8,3.3,3.2c-0.1,10.7,0.1,21.3-0.1,32
			c-0.1,4.8-3.7,5.8-7.7,5.8c-18.8,0-37.7,0-56.5,0C311.6,769,308.4,769,305.2,769z"/>
		<path class="st10" d="M306.3,628c-21.5,0-42.9,0-64.4,0c-7.3,0-8.9-1.5-8.9-8.7c0-9.3,0.1-18.6-0.1-28c-0.1-3.1,0.6-4.6,4.1-4.4
			c4,0.3,8,0.2,12,0c3.2-0.2,4,1.1,3.9,4.1c-0.2,4.2,0,8.3,0,12.5c0,3.7,1.8,5.5,5.5,5.5c31.8,0,63.6,0,95.4,0
			c4.2,0,6.6-1.8,6.4-6.3c-0.2-4,0.1-8-0.1-12c-0.1-2.9,1-4,3.8-3.6c0.2,0,0.3,0,0.5,0c5,0.2,11.3-2,14.5,0.8
			c3.3,3,0.9,9.4,1.1,14.3c0.2,6,0.1,12,0,18c0,5.9-1.8,7.8-7.7,7.8C350.3,628,328.3,628,306.3,628z"/>
		<path class="st10" d="M305.5,910c-21.5,0-43,0-64.4,0c-7.5,0-9.1-1.6-9.1-9c0-9.3,0.1-18.6,0-28c0-3,0.8-4.3,4-4.1
			c4,0.2,8,0.2,12,0c3.4-0.2,4.3,1.3,4.1,4.4c-0.2,4.2,0,8.3,0,12.5c0,3.5,1.7,5.2,5.2,5.2c32,0,63.9,0,95.9,0c3.9,0,6.2-1.7,6-6.1
			c-0.2-3.8,0.2-7.7-0.1-11.5c-0.3-3.6,1.2-4.6,4.6-4.4c4,0.2,8,0.2,12,0c2.6-0.1,3.5,1,3.5,3.5c-0.1,10.5,0.1,21-0.1,31.5
			c-0.1,5.2-3.9,6-8,6C349.1,910,327.3,910,305.5,910z"/>
		<path class="st10" d="M305.5,487c-21.5,0-42.9,0-64.4,0c-7.6,0-9.1-1.5-9.1-9c0-9.3,0.1-18.6-0.1-28c0-2.9,0.8-4.3,3.9-4.1
			c4,0.2,8,0.2,12,0c3.4-0.2,4.3,1.3,4.1,4.4c-0.2,4.2,0,8.3,0,12.5c0,3.5,1.7,5.2,5.2,5.2c32,0,63.9,0,95.9,0c3.9,0,6.2-1.7,6-6.1
			c-0.2-3.8,0.2-7.7-0.1-11.5c-0.3-3.6,1.2-4.6,4.6-4.4c4,0.2,8,0.2,12,0c2.6-0.1,3.5,1,3.4,3.5c-0.1,10.3,0,20.6-0.1,31
			c0,4.6-2.4,6.5-8,6.5C349.1,487,327.3,487,305.5,487z"/>
		<path class="st10" d="M305.3,346c-21.5,0-43,0-64.4,0c-7.3,0-8.8-1.5-8.8-8.7c0-9.3,0.1-18.7-0.1-28c-0.1-3.1,0.6-4.6,4.1-4.3
			c4,0.3,8,0.3,12,0c3.2-0.2,4,1.1,3.9,4.1c-0.2,4,0,8-0.1,12c-0.1,4.2,1.9,6,6.1,6c31.6-0.1,63.3,0,94.9,0c4.2,0,6.5-1.9,6.4-6.4
			c-0.1-3.8,0.2-7.7-0.1-11.5c-0.2-3.4,1.1-4.4,4.3-4.1c4.9,0.4,11.4-2,14.5,0.9c3.2,2.9,0.9,9.4,1,14.3c0.2,6,0.1,12,0,18
			c0,5.9-1.8,7.8-7.7,7.8C349.2,346,327.3,346,305.3,346z"/>
		<path class="st10" d="M306.4,205c-21.3,0-42.6,0-63.9,0c-8.2,0-9.4-1.3-9.4-9.6c0-9.2,0.1-18.3-0.1-27.5c-0.1-3.1,1-4.1,4-3.9
			c4.2,0.2,8.3,0.2,12.5,0c2.6-0.1,3.5,0.9,3.4,3.5c-0.1,4.3,0,8.7,0,13c0,3.7,1.7,5.5,5.5,5.5c32,0,63.9,0,95.9,0c4,0,6.1-2,6-6.3
			c-0.1-4.2,0-8.3-0.1-12.5c-0.1-2.3,0.8-3.1,3.2-3.2c16.7-1.2,16.7-1.3,16.7,15.2c0,5.5,0,11,0,16.5c0,8-1.3,9.4-9.2,9.4
			C349.3,205,327.9,205,306.4,205z"/>
		<path class="st11" d="M306.1-106c-27.3,0-54.6,0-81.9,0c-3.4,0-5.9-1-7-4.3c-0.8-2.6,0.7-4.5,2.7-5.9c1.2-0.8,2.5-0.8,3.8-0.8
			c54.8,0,109.6,0,164.4,0c3.9,0,6.8,1.5,6.8,5.6c0,4.1-3,5.5-6.8,5.5C360.7-106,333.4-106,306.1-106z"/>
		<path class="st12" d="M305,763.1c-15.1,0-30.3,0-45.4,0c-2.4,0-5.6,0.6-5.4-3.3c0.2-3.4,3.1-2.8,5.4-2.8c30.6,0,61.2,0,91.8,0
			c2.4,0,5.6-0.6,5.4,3.3c-0.2,3.4-3.1,2.8-5.4,2.8C336,763.1,320.5,763.1,305,763.1z"/>
		<path class="st12" d="M306.5,622.1c-15.3,0-30.6,0-45.9,0c-2.4,0-5.6,0.6-5.4-3.3c0.2-3.4,3.2-2.8,5.4-2.8c30.6,0,61.2,0,91.8,0
			c2.4,0,5.6-0.6,5.4,3.3c-0.2,3.4-3.2,2.8-5.4,2.8C337.1,622.1,321.8,622.1,306.5,622.1z"/>
		<path class="st12" d="M305,904.1c-15.1,0-30.3,0-45.4,0c-2.2,0-5.2,0.6-5.4-2.8c-0.2-3.8,3-3.2,5.4-3.2c30.6,0,61.2,0,91.8,0
			c2.2,0,5.2-0.6,5.4,2.8c0.2,3.8-3,3.2-5.4,3.2C335.9,904.1,320.4,904.1,305,904.1z"/>
		<path class="st12" d="M305.4,475c15.5,0,30.9,0,46.4,0c2,0,4.4-0.4,4.9,2.3c0.7,3.8-2.2,3.8-4.8,3.8c-17.3,0-34.6,0-51.9,0
			c-13.6,0-27.3,0-40.9,0c-2,0-4.4,0.4-4.9-2.3c-0.7-3.8,2.2-3.8,4.8-3.8C274.5,475,290,475,305.4,475z"/>
		<path class="st12" d="M304.9,340.1c-15.1,0-30.3,0-45.4,0c-2.2,0-5.2,0.6-5.3-2.8c-0.1-3.8,3.1-3.2,5.5-3.2c30.6,0,61.2,0,91.8,0
			c2.3,0,5.2-0.6,5.3,2.8c0.1,3.8-3.1,3.2-5.5,3.2C335.9,340.1,320.4,340.1,304.9,340.1z"/>
		<path class="st12" d="M306.5,193c15.5,0,30.9,0,46.4,0c2,0,4.4-0.4,4.9,2.3c0.7,3.8-2.2,3.8-4.8,3.8c-17.6,0-35.3,0-52.9,0
			c-13.3,0-26.6,0-39.9,0c-2,0-4.4,0.4-4.9-2.3c-0.7-3.8,2.2-3.8,4.8-3.8C275.5,193,291,193,306.5,193z"/>
	</g>
</g>
</svg>
