<svg id="Layer_1" data-name="Layer 1" xmlns="http://www.w3.org/2000/svg" viewBox="0 0 749.19 721.19"><defs><style>.cls-1{fill:transparent;}.cls-2{fill:#fedf81;}.cls-3{fill:#feb200;}.cls-4{fill:#fec928;}.cls-5{fill:#4e342e;}.cls-6{fill:#cfe0e6;}.cls-7{fill:#edeff0;}</style></defs><title>mirror</title><path class="cls-1" d="M500.5,36q185,0,370-.09c3.75,0,4.6.85,4.59,4.59q-.16,356,0,712c0,3.75-.84,4.6-4.59,4.59q-370-.15-740,0c-3.75,0-4.6-.84-4.59-4.59q.16-356,0-712c0-3.75.84-4.6,4.59-4.59Q315.5,36.08,500.5,36Z" transform="translate(-125.91 -35.91)"/><path class="cls-2" d="M236,470q0-200.2,0-400.4c0-7.43-.79-6.58,6.75-6.58q259.43,0,518.86,0c6.37,0,6.47,0,6.36,6.48-2.17,121.75-.52,243.5-.82,365.25,0,12.09,1,24.21.73,36.33a8.88,8.88,0,0,1-4.38.57c-22-.14-44,0-66.06,0-2.47,0-5,.24-7.29-1-1.91-3.1-4.64-4.13-8.31-4.08q-21.86.24-43.72,0c-3.67,0-6.4,1-8.31,4.1-2.31,1.27-4.85,1-7.33,1.05q-120.91,0-241.81,0c-2.48,0-5,.22-7.35-1-2.12-3.59-5.39-4.22-9.31-4.17q-21.4.25-42.81,0c-3.64,0-6.45.86-8.33,4.07-2,1.14-4.17,1.06-6.33,1.06q-32,.06-64,0C240.28,471.59,237.85,471.88,236,470Z" transform="translate(-125.91 -35.91)"/><path class="cls-3" d="M690.17,470q36,0,72,0c1.94,0,4-.47,5.7,1.05q26.67,73.49,53.35,147,10,27.54,20,55.07a17.57,17.57,0,0,1,.54,2.86c-1.4,1.47-3.26,1.53-5.09,1.62s-3.67.05-5.5.05q-329.74,0-659.48,0c-3.56,0-7.39,1-10.59-1.63,2.05-9.58,6.23-18.44,9.53-27.59,13.62-37.8,27.48-75.5,41.3-113.23q11.94-32.6,24-65.16h76.85c.26.21.59.4.71.68,2.89,6.78,2.88,6.78,10.54,6.78,13.28,0,26.55-.13,39.83.07,4.53.07,7.91-.53,8.12-6a2.27,2.27,0,0,1,1.14-1.57H629.83c.26.21.59.4.71.68,2.89,6.78,2.88,6.78,10.54,6.78,13.28,0,26.55-.13,39.83.07,4.53.07,7.91-.53,8.12-6A2.27,2.27,0,0,1,690.17,470Z" transform="translate(-125.91 -35.91)"/><path class="cls-4" d="M161.17,676,599,676q121.44,0,242.88,0c.05,11,.05,22,.21,33,0,2.43-.85,3.31-3.19,3.08-1.15-.11-2.33,0-3.5,0q-333.85,0-667.71,0c-7.71,0-6.59,1.07-6.62-6.54C161,695.62,161.11,685.79,161.17,676Z" transform="translate(-125.91 -35.91)"/><path class="cls-3" d="M501.25,442q-117.47,0-234.95.1c-4.78,0-6.45-.79-6.44-6.14q.28-169.46,0-338.92c0-4.63.87-6.17,5.9-6.16q235.7.22,471.4,0c5,0,5.91,1.52,5.9,6.16q-.19,169.46,0,338.92c0,5.34-1.66,6.15-6.44,6.14Q619,441.89,501.25,442Z" transform="translate(-125.91 -35.91)"/><path class="cls-5" d="M373.17,470c-.47,9-.47,9-9.76,9-14.76,0-29.53-.23-44.29.13-4.95.12-7.09-1.05-6.15-6.16a13,13,0,0,0-.13-3c-.36-3.87.95-5.21,5.24-5.13q24.92.5,49.86,0C372.22,464.78,373.52,466.12,373.17,470Z" transform="translate(-125.91 -35.91)"/><path class="cls-5" d="M690.17,470c-.47,9-.47,9-9.76,9-14.76,0-29.53-.23-44.29.13-4.95.12-7.09-1.05-6.15-6.16a13,13,0,0,0-.13-3c-.36-3.87.95-5.21,5.24-5.13q24.92.5,49.86,0C689.22,464.78,690.52,466.12,690.17,470Z" transform="translate(-125.91 -35.91)"/><path class="cls-4" d="M787.08,645.94c-2.33,0-4.66.06-7,.06H224.92c-2.33,0-4.66,0-7-.06-1.2-1.81-.24-3.54.26-5.25,12.94-44,26.13-88,39.08-132,.88-3,1.29-6.23,3.66-8.6q52.74,0,105.49-.06l375.46-.06c2.29,1.32,2.57,3.76,3.23,5.95,10.6,34.82,21.56,69.53,32.25,104.33,3.17,10.33,6.43,20.63,9.62,31C787.44,642.72,788.2,644.32,787.08,645.94Z" transform="translate(-125.91 -35.91)"/><path class="cls-2" d="M260.92,500.06c-2.72,9.72-5.31,19.47-8.18,29.15q-17.34,58.39-34.81,116.73H200.36L259.25,474.1l.75.1c0,6.89-.05,13.78,0,20.67C260.06,496.61,259.31,498.56,260.92,500.06Z" transform="translate(-125.91 -35.91)"/><path class="cls-2" d="M787.08,645.94l-45.21-146q0-14,0-27.93l1.06-.27,59.72,174.19Z" transform="translate(-125.91 -35.91)"/><path class="cls-6" d="M500.61,121q100.48,0,201-.09c4.21,0,5.55.75,5.55,5.35q-.24,143.23,0,286.45c0,4.51-1.21,5.39-5.5,5.39q-201.22-.18-402.43,0c-4,0-5.29-.8-5.28-5.1q.2-143.48,0-287c0-4.23,1.15-5.15,5.24-5.14Q399.87,121.11,500.61,121Z" transform="translate(-125.91 -35.91)"/><path class="cls-7" d="M671.36,206.26c-2.22,2.14-4.43,5-7.32,6.8-1.91,1.17-3.2-1.75-4.46-3.06-14.74-15.28-29.35-30.69-44.12-45.94-2-2-2-3.1,0-5.12,6-6,6-6.2,11.75-.19q21.39,22.23,42.63,44.61C670.49,204,671.47,204.55,671.36,206.26Z" transform="translate(-125.91 -35.91)"/><path class="cls-7" d="M607.57,176.07a19.13,19.13,0,0,0,1.76,2.76c10,11.33,20.21,22.46,31.08,32.94,3.57,3.44.43,4.52-1.16,6.54-1.88,2.4-3.29,2.43-5.45.08-10.35-11.22-20.88-22.27-31.3-33.43-.87-.94-3-1.76-1.34-3.54S604.28,177.55,607.57,176.07Z" transform="translate(-125.91 -35.91)"/></svg>